<svg width="18" height="18" viewBox="0 0 18 18" fill="none" xmlns="http://www.w3.org/2000/svg">
<path d="M10.2977 2.63242L11.6177 5.27242C11.7977 5.63992 12.2777 5.99242 12.6827 6.05992L15.0752 6.45742C16.6052 6.71242 16.9652 7.82242 15.8627 8.91742L14.0027 10.7774C13.6877 11.0924 13.5152 11.6999 13.6127 12.1349L14.1452 14.4374C14.5652 16.2599 13.5977 16.9649 11.9852 16.0124L9.74268 14.6849C9.33768 14.4449 8.67018 14.4449 8.25768 14.6849L6.01518 16.0124C4.41018 16.9649 3.43518 16.2524 3.85518 14.4374L4.38768 12.1349C4.48518 11.6999 4.31268 11.0924 3.99768 10.7774L2.13768 8.91742C1.04268 7.82242 1.39518 6.71242 2.92518 6.45742L5.31768 6.05992C5.71518 5.99242 6.19518 5.63992 6.37518 5.27242L7.69518 2.63242C8.41518 1.19992 9.58518 1.19992 10.2977 2.63242Z" fill="#FFCD1A"/>
</svg>
